<?xml version="1.0" encoding="UTF-8" standalone="no"?>
<!-- Created with Inkscape (http://www.inkscape.org/) -->

<svg
   version="1.1"
   id="svg2"
   width="1186.9432"
   height="273.33218"
   viewBox="0 0 1186.9432 273.33218"
   sodipodi:docname="fondo2.svg"
   inkscape:version="1.2.1 (9c6d41e410, 2022-07-14)"
   xmlns:inkscape="http://www.inkscape.org/namespaces/inkscape"
   xmlns:sodipodi="http://sodipodi.sourceforge.net/DTD/sodipodi-0.dtd"
   xmlns="http://www.w3.org/2000/svg"
   xmlns:svg="http://www.w3.org/2000/svg">
  <defs
     id="defs6">
    <clipPath
       clipPathUnits="userSpaceOnUse"
       id="clipPath24">
      <path
         d="M 0,0 H 811 V 280 H 0 Z"
         id="path22" />
    </clipPath>
    <clipPath
       clipPathUnits="userSpaceOnUse"
       id="clipPath38">
      <path
         d="M 0,0 H 811 V 280 H 0 Z"
         id="path36" />
    </clipPath>
    <clipPath
       clipPathUnits="userSpaceOnUse"
       id="clipPath52">
      <path
         d="M 0,0 H 811 V 280 H 0 Z"
         id="path50" />
    </clipPath>
    <clipPath
       clipPathUnits="userSpaceOnUse"
       id="clipPath66">
      <path
         d="M 0,0 H 811 V 280 H 0 Z"
         id="path64" />
    </clipPath>
    <clipPath
       clipPathUnits="userSpaceOnUse"
       id="clipPath80">
      <path
         d="M 0,0 H 811 V 280 H 0 Z"
         id="path78" />
    </clipPath>
    <clipPath
       clipPathUnits="userSpaceOnUse"
       id="clipPath94">
      <path
         d="M 0,0 H 811 V 280 H 0 Z"
         id="path92" />
    </clipPath>
    <clipPath
       clipPathUnits="userSpaceOnUse"
       id="clipPath108">
      <path
         d="M 0,0 H 811 V 280 H 0 Z"
         id="path106" />
    </clipPath>
    <clipPath
       clipPathUnits="userSpaceOnUse"
       id="clipPath122">
      <path
         d="M 0,0 H 811 V 280 H 0 Z"
         id="path120" />
    </clipPath>
    <clipPath
       clipPathUnits="userSpaceOnUse"
       id="clipPath136">
      <path
         d="M 0,0 H 811 V 280 H 0 Z"
         id="path134" />
    </clipPath>
    <clipPath
       clipPathUnits="userSpaceOnUse"
       id="clipPath150">
      <path
         d="M 0,0 H 811 V 280 H 0 Z"
         id="path148" />
    </clipPath>
    <clipPath
       clipPathUnits="userSpaceOnUse"
       id="clipPath164">
      <path
         d="M 0,0 H 811 V 280 H 0 Z"
         id="path162" />
    </clipPath>
    <clipPath
       clipPathUnits="userSpaceOnUse"
       id="clipPath178">
      <path
         d="M 0,0 H 811 V 280 H 0 Z"
         id="path176" />
    </clipPath>
    <clipPath
       clipPathUnits="userSpaceOnUse"
       id="clipPath192">
      <path
         d="M 0,0 H 811 V 280 H 0 Z"
         id="path190" />
    </clipPath>
    <clipPath
       clipPathUnits="userSpaceOnUse"
       id="clipPath206">
      <path
         d="M 0,0 H 811 V 280 H 0 Z"
         id="path204" />
    </clipPath>
    <clipPath
       clipPathUnits="userSpaceOnUse"
       id="clipPath220">
      <path
         d="M 0,0 H 811 V 280 H 0 Z"
         id="path218" />
    </clipPath>
    <clipPath
       clipPathUnits="userSpaceOnUse"
       id="clipPath234">
      <path
         d="M 0,0 H 811 V 280 H 0 Z"
         id="path232" />
    </clipPath>
    <clipPath
       clipPathUnits="userSpaceOnUse"
       id="clipPath248">
      <path
         d="M 0,0 H 811 V 280 H 0 Z"
         id="path246" />
    </clipPath>
    <clipPath
       clipPathUnits="userSpaceOnUse"
       id="clipPath262">
      <path
         d="M 0,0 H 811 V 280 H 0 Z"
         id="path260" />
    </clipPath>
    <clipPath
       clipPathUnits="userSpaceOnUse"
       id="clipPath276">
      <path
         d="M 0,0 H 811 V 280 H 0 Z"
         id="path274" />
    </clipPath>
    <clipPath
       clipPathUnits="userSpaceOnUse"
       id="clipPath290">
      <path
         d="M 0,0 H 811 V 280 H 0 Z"
         id="path288" />
    </clipPath>
    <clipPath
       clipPathUnits="userSpaceOnUse"
       id="clipPath302">
      <path
         d="M 0,0 H 811 V 236.957 H 0 Z"
         id="path300" />
    </clipPath>
    <clipPath
       clipPathUnits="userSpaceOnUse"
       id="clipPath312">
      <path
         d="M 0,0 H 811 V 280 H 0 Z"
         id="path310" />
    </clipPath>
    <clipPath
       clipPathUnits="userSpaceOnUse"
       id="clipPath326">
      <path
         d="M 0,0 H 811 V 280 H 0 Z"
         id="path324" />
    </clipPath>
    <clipPath
       clipPathUnits="userSpaceOnUse"
       id="clipPath342">
      <path
         d="M 0,0 H 811 V 280 H 0 Z"
         id="path340" />
    </clipPath>
    <clipPath
       clipPathUnits="userSpaceOnUse"
       id="clipPath356">
      <path
         d="M 0,0 H 811 V 280 H 0 Z"
         id="path354" />
    </clipPath>
    <clipPath
       clipPathUnits="userSpaceOnUse"
       id="clipPath370">
      <path
         d="M 0,0 H 811 V 280 H 0 Z"
         id="path368" />
    </clipPath>
    <clipPath
       clipPathUnits="userSpaceOnUse"
       id="clipPath384">
      <path
         d="M 0,0 H 811 V 280 H 0 Z"
         id="path382" />
    </clipPath>
    <clipPath
       clipPathUnits="userSpaceOnUse"
       id="clipPath398">
      <path
         d="M 0,0 H 811 V 280 H 0 Z"
         id="path396" />
    </clipPath>
    <clipPath
       clipPathUnits="userSpaceOnUse"
       id="clipPath410">
      <path
         d="M 0,0 H 811 V 280 H 0 Z"
         id="path408" />
    </clipPath>
    <clipPath
       clipPathUnits="userSpaceOnUse"
       id="clipPath414">
      <path
         d="M 87.98,8.996 H 166.8 V 46.375 H 87.98 Z"
         id="path412" />
    </clipPath>
    <clipPath
       clipPathUnits="userSpaceOnUse"
       id="clipPath418">
      <path
         d="M 0,0 H 811 V 280 H 0 Z"
         id="path416" />
    </clipPath>
    <clipPath
       clipPathUnits="userSpaceOnUse"
       id="clipPath448">
      <path
         d="M 0,0 H 811 V 280 H 0 Z"
         id="path446" />
    </clipPath>
    <clipPath
       clipPathUnits="userSpaceOnUse"
       id="clipPath452">
      <path
         d="m 172.133,20.363 h 2.98 v 3.52 h -2.98 z"
         id="path450" />
    </clipPath>
    <clipPath
       clipPathUnits="userSpaceOnUse"
       id="clipPath456">
      <path
         d="M 0,0 H 811 V 280 H 0 Z"
         id="path454" />
    </clipPath>
    <clipPath
       clipPathUnits="userSpaceOnUse"
       id="clipPath486">
      <path
         d="M 0,0 H 811 V 280 H 0 Z"
         id="path484" />
    </clipPath>
    <clipPath
       clipPathUnits="userSpaceOnUse"
       id="clipPath490">
      <path
         d="m 177.063,24.379 h 7.781 v 7.73 h -7.781 z"
         id="path488" />
    </clipPath>
    <clipPath
       clipPathUnits="userSpaceOnUse"
       id="clipPath494">
      <path
         d="M 0,0 H 811 V 280 H 0 Z"
         id="path492" />
    </clipPath>
    <clipPath
       clipPathUnits="userSpaceOnUse"
       id="clipPath524">
      <path
         d="M 0,0 H 811 V 280 H 0 Z"
         id="path522" />
    </clipPath>
    <clipPath
       clipPathUnits="userSpaceOnUse"
       id="clipPath528">
      <path
         d="m 177.844,27.055 h 0.039 v 0.02 h -0.039 z"
         id="path526" />
    </clipPath>
    <clipPath
       clipPathUnits="userSpaceOnUse"
       id="clipPath532">
      <path
         d="M 0,0 H 811 V 280 H 0 Z"
         id="path530" />
    </clipPath>
    <clipPath
       clipPathUnits="userSpaceOnUse"
       id="clipPath562">
      <path
         d="M 0,0 H 811 V 280 H 0 Z"
         id="path560" />
    </clipPath>
    <clipPath
       clipPathUnits="userSpaceOnUse"
       id="clipPath566">
      <path
         d="m 207.473,31.699 h 46.551 V 64.98 h -46.551 z"
         id="path564" />
    </clipPath>
    <clipPath
       clipPathUnits="userSpaceOnUse"
       id="clipPath570">
      <path
         d="M 0,0 H 811 V 280 H 0 Z"
         id="path568" />
    </clipPath>
    <clipPath
       clipPathUnits="userSpaceOnUse"
       id="clipPath600">
      <path
         d="M 0,0 H 811 V 280 H 0 Z"
         id="path598" />
    </clipPath>
    <clipPath
       clipPathUnits="userSpaceOnUse"
       id="clipPath604">
      <path
         d="m 249.852,68.203 h 3.609 v 5.383 h -3.609 z"
         id="path602" />
    </clipPath>
    <clipPath
       clipPathUnits="userSpaceOnUse"
       id="clipPath608">
      <path
         d="M 0,0 H 811 V 280 H 0 Z"
         id="path606" />
    </clipPath>
    <clipPath
       clipPathUnits="userSpaceOnUse"
       id="clipPath638">
      <path
         d="M 0,0 H 811 V 280 H 0 Z"
         id="path636" />
    </clipPath>
    <clipPath
       clipPathUnits="userSpaceOnUse"
       id="clipPath642">
      <path
         d="m 257.641,84.477 h 20.672 v 22.938 h -20.672 z"
         id="path640" />
    </clipPath>
    <clipPath
       clipPathUnits="userSpaceOnUse"
       id="clipPath646">
      <path
         d="M 0,0 H 811 V 280 H 0 Z"
         id="path644" />
    </clipPath>
    <clipPath
       clipPathUnits="userSpaceOnUse"
       id="clipPath676">
      <path
         d="M 0,0 H 811 V 280 H 0 Z"
         id="path674" />
    </clipPath>
    <clipPath
       clipPathUnits="userSpaceOnUse"
       id="clipPath680">
      <path
         d="M 26.094,56.16 H 63.141 V 84.637 H 26.094 Z"
         id="path678" />
    </clipPath>
    <clipPath
       clipPathUnits="userSpaceOnUse"
       id="clipPath684">
      <path
         d="M 0,0 H 811 V 280 H 0 Z"
         id="path682" />
    </clipPath>
    <clipPath
       clipPathUnits="userSpaceOnUse"
       id="clipPath714">
      <path
         d="M 0,0 H 811 V 280 H 0 Z"
         id="path712" />
    </clipPath>
    <clipPath
       clipPathUnits="userSpaceOnUse"
       id="clipPath718">
      <path
         d="m 67.773,55.289 h 6.16 v 3.715 h -6.16 z"
         id="path716" />
    </clipPath>
    <clipPath
       clipPathUnits="userSpaceOnUse"
       id="clipPath722">
      <path
         d="M 0,0 H 811 V 280 H 0 Z"
         id="path720" />
    </clipPath>
  </defs>
  <sodipodi:namedview
     id="namedview4"
     pagecolor="#505050"
     bordercolor="#eeeeee"
     borderopacity="1"
     inkscape:showpageshadow="0"
     inkscape:pageopacity="0"
     inkscape:pagecheckerboard="0"
     inkscape:deskcolor="#505050"
     showgrid="false"
     inkscape:zoom="0.20049899"
     inkscape:cx="49.875563"
     inkscape:cy="194.5147"
     inkscape:window-width="1366"
     inkscape:window-height="705"
     inkscape:window-x="-8"
     inkscape:window-y="-8"
     inkscape:window-maximized="1"
     inkscape:current-layer="g10">
    <inkscape:page
       x="0"
       y="0"
       id="page8"
       width="1186.9432"
       height="273.33218" />
  </sodipodi:namedview>
  <g
     id="g10"
     inkscape:groupmode="layer"
     inkscape:label="Page 1"
     transform="matrix(1.3333333,0,0,1.3333333,106,-0.00115003)">
    <g
       id="g12" />
    <g
       id="g14"
       transform="translate(0,-75)">
      <g
         id="g16">
        <g
           id="g18">
          <g
             id="g20"
             clip-path="url(#clipPath24)">
            <g
               id="g26">
              <path
                 d="m 659.836,138.414 c -10.582,-7.777 -72.633,-53.793 -100.633,-39.207 -19.515,12.258 14.426,63.348 15.453,66.828 5.371,5.395 39.543,18.867 49.832,18.227 10.285,-0.645 33.43,0.355 35.485,-0.813 1.82,-8.144 5.183,-32.937 -0.137,-45.035"
                 style="fill:#cfe0ee;fill-opacity:1;fill-rule:nonzero;stroke:none"
                 id="path28" />
            </g>
          </g>
        </g>
      </g>
      <g
         id="g30">
        <g
           id="g32">
          <g
             id="g34"
             clip-path="url(#clipPath38)">
            <g
               id="g40">
              <path
                 d="m 659.836,138.414 c 10.152,4.867 22.734,13.246 27.477,16.738 0.058,8.508 -3.821,34.446 -14.059,43.2 -19.984,4.515 -57.695,16.824 -63.418,18.937 -11.699,-15.113 -33.688,-41.062 -35.18,-51.254 21.422,13.746 61.594,24.434 84.129,17.434 4.008,-12.739 6.438,-36.266 1.051,-45.055"
                 style="fill:#b4c9dd;fill-opacity:1;fill-rule:nonzero;stroke:none"
                 id="path42" />
            </g>
          </g>
        </g>
      </g>
      <g
         id="g44">
        <g
           id="g46">
          <g
             id="g48"
             clip-path="url(#clipPath52)">
            <g
               id="g54">
              <path
                 d="m 657.758,136.898 c 6.84,14.848 1.98,31.09 0.918,46.567 -0.102,1.461 2.351,1.754 2.554,0.297 2.149,-15.434 6.098,-33.59 -1.371,-48.121 -0.734,-1.426 -2.746,-0.145 -2.101,1.257"
                 style="fill:#b4c9dd;fill-opacity:1;fill-rule:nonzero;stroke:none"
                 id="path56" />
            </g>
          </g>
        </g>
      </g>
      <g
         id="g58">
        <g
           id="g60">
          <g
             id="g62"
             clip-path="url(#clipPath66)">
            <g
               id="g68">
              <path
                 d="m 658.121,182.539 c -13.898,-0.648 -27.637,1.406 -41.484,-0.75 -15.192,-2.363 -27.953,-9.914 -41.258,-17.07 -1.719,-0.926 -3.074,1.609 -1.445,2.636 11.789,7.438 24.222,13.688 37.839,16.883 15.157,3.563 31.024,1.176 46.379,0.938 1.715,-0.028 1.653,-2.559 -0.031,-2.637"
                 style="fill:#b4c9dd;fill-opacity:1;fill-rule:nonzero;stroke:none"
                 id="path70" />
            </g>
          </g>
        </g>
      </g>
      <g
         id="g72">
        <g
           id="g74">
          <g
             id="g76"
             clip-path="url(#clipPath80)">
            <g
               id="g82">
              <path
                 d="m 743.996,209.102 c -5.285,-7.352 -7.644,-13.219 -11.863,-12.836 -5.098,8.586 -27.508,40.785 -27.508,40.785 -6.941,3.91 -46.434,19.797 -61.863,20.5 5.617,6.609 16.996,22.437 20.39,22.418 8.762,0.972 24.821,6.156 34.911,4.043 10.089,-2.117 21.054,-10.953 27.871,-16.082 20.773,-15.625 18.121,-45.965 18.062,-58.828"
                 style="fill:#7091b3;fill-opacity:1;fill-rule:nonzero;stroke:none"
                 id="path84" />
            </g>
          </g>
        </g>
      </g>
      <g
         id="g86">
        <g
           id="g88">
          <g
             id="g90"
             clip-path="url(#clipPath94)">
            <g
               id="g96">
              <path
                 d="m 707.016,237.531 c 7.793,-14.488 20.129,-26.324 25.797,-41.953 0.511,-1.41 -1.875,-2.348 -2.45,-0.957 -6.363,15.313 -18.261,26.965 -25.476,41.746 -0.68,1.395 1.383,2.551 2.129,1.164"
                 style="fill:#7091b3;fill-opacity:1;fill-rule:nonzero;stroke:none"
                 id="path98" />
            </g>
          </g>
        </g>
      </g>
      <g
         id="g100">
        <g
           id="g102">
          <g
             id="g104"
             clip-path="url(#clipPath108)">
            <g
               id="g110">
              <path
                 d="m 703.98,235.977 c -19.621,10.988 -39.714,16.113 -61.613,20.148 -1.902,0.352 -1.047,3.121 0.793,2.852 22.028,-3.247 42.945,-9.356 62.11,-20.852 1.39,-0.832 0.117,-2.937 -1.29,-2.148"
                 style="fill:#7091b3;fill-opacity:1;fill-rule:nonzero;stroke:none"
                 id="path112" />
            </g>
          </g>
        </g>
      </g>
      <g
         id="g114">
        <g
           id="g116">
          <g
             id="g118"
             clip-path="url(#clipPath122)">
            <g
               id="g124">
              <path
                 d="m 701.355,167.754 c -5.519,-6.246 -14.074,-10.402 -14.074,-10.402 0.289,6.363 -3.929,32.808 -14.027,41 -17.316,4.062 -50.211,13.293 -63.418,18.937 3.391,7.695 5.301,8.832 5.301,8.832 8.894,0.059 48.304,-1.988 68.75,-13.297 16.488,-9.894 21.851,-36.172 17.468,-45.07"
                 style="fill:#7091b3;fill-opacity:1;fill-rule:nonzero;stroke:none"
                 id="path126" />
            </g>
          </g>
        </g>
      </g>
      <g
         id="g128">
        <g
           id="g130">
          <g
             id="g132"
             clip-path="url(#clipPath136)">
            <g
               id="g138">
              <path
                 d="m 686.031,157.363 c 1.578,14.563 -6.207,28.563 -13.972,40.332 -0.969,1.465 1.429,2.774 2.39,1.313 7.789,-11.891 16.574,-27.215 14.039,-41.992 -0.242,-1.395 -2.605,-1.051 -2.457,0.347"
                 style="fill:#7091b3;fill-opacity:1;fill-rule:nonzero;stroke:none"
                 id="path140" />
            </g>
          </g>
        </g>
      </g>
      <g
         id="g142">
        <g
           id="g144">
          <g
             id="g146"
             clip-path="url(#clipPath150)">
            <g
               id="g152">
              <path
                 d="m 610.273,218.855 c 19.082,-7.296 41.336,-16.242 61.852,-18.187 2.078,-0.199 2.047,-3.453 -0.039,-3.254 -20.871,1.981 -43.27,10.879 -62.688,18.309 -1.945,0.746 -1.082,3.882 0.875,3.132"
                 style="fill:#7091b3;fill-opacity:1;fill-rule:nonzero;stroke:none"
                 id="path154" />
            </g>
          </g>
        </g>
      </g>
      <g
         id="g156">
        <g
           id="g158">
          <g
             id="g160"
             clip-path="url(#clipPath164)">
            <g
               id="g166">
              <path
                 d="m 704.824,237.625 c -10.539,5.313 -51.91,20.945 -62.894,18.938 -7.11,-8.485 -26.246,-28.176 -24.512,-31.055 7.926,0.176 51.516,-3.832 66.469,-12.684 14.316,-10.929 20.39,-28.543 16.851,-46.914 18.047,11.961 30.789,29.348 30.789,29.348 -2.652,6.164 -21.082,37.555 -26.703,42.367"
                 style="fill:#cfe0ee;fill-opacity:1;fill-rule:nonzero;stroke:none"
                 id="path168" />
            </g>
          </g>
        </g>
      </g>
      <g
         id="g170">
        <g
           id="g172">
          <g
             id="g174"
             clip-path="url(#clipPath178)">
            <g
               id="g180">
              <path
                 d="m 699.547,166.238 c 2.609,14.594 0.414,35.098 -13.313,43.641 -1.402,0.871 -0.14,2.891 1.305,2.168 14.969,-7.481 17.953,-31.988 14.391,-46.469 -0.387,-1.574 -2.657,-0.875 -2.383,0.66"
                 style="fill:#fff0ea;fill-opacity:1;fill-rule:nonzero;stroke:none"
                 id="path182" />
            </g>
          </g>
        </g>
      </g>
      <g
         id="g184">
        <g
           id="g186">
          <g
             id="g188"
             clip-path="url(#clipPath192)">
            <g
               id="g194">
              <path
                 d="m 616.316,227.051 c 23.551,1.586 47.438,-5.18 69.454,-12.887 1.972,-0.687 1.105,-3.824 -0.875,-3.133 -21.782,7.625 -45.336,14.336 -68.614,12.766 -2.101,-0.141 -2.039,3.113 0.035,3.254"
                 style="fill:#fff0ea;fill-opacity:1;fill-rule:nonzero;stroke:none"
                 id="path196" />
            </g>
          </g>
        </g>
      </g>
      <g
         id="g198">
        <g
           id="g200">
          <g
             id="g202"
             clip-path="url(#clipPath206)">
            <g
               id="g208">
              <path
                 d="m 755.422,311.277 c 7.269,-14.789 24.879,-39.879 22.574,-52.289 -11.785,-21.129 -28.984,-47.691 -35.156,-51.808 0.457,12.457 2.59,41.824 -6.801,50.726 -7.961,8.074 -10.101,10.024 -10.101,10.024 0,0 -14.446,13.902 -27.875,16.082 -13.43,2.176 -28.852,-5.301 -34.911,-4.043 7.735,9.992 32.922,40.015 38.743,42.597 10.554,-0.265 47.828,-5.691 53.527,-11.289"
                 style="fill:#e2edf5;fill-opacity:1;fill-rule:nonzero;stroke:none"
                 id="path210" />
            </g>
          </g>
        </g>
      </g>
      <g
         id="g212">
        <g
           id="g214">
          <g
             id="g216"
             clip-path="url(#clipPath220)">
            <g
               id="g222">
              <path
                 d="m 741.559,207.195 c 0.57,18.957 3.543,47.219 -15.606,58.45 -1.512,0.886 -0.117,3.207 1.391,2.328 19.996,-11.653 18.051,-40.977 16.781,-60.809 -0.105,-1.644 -2.617,-1.633 -2.566,0.031"
                 style="fill:#fff0ea;fill-opacity:1;fill-rule:nonzero;stroke:none"
                 id="path224" />
            </g>
          </g>
        </g>
      </g>
      <g
         id="g226">
        <g
           id="g228">
          <g
             id="g230"
             clip-path="url(#clipPath234)">
            <g
               id="g236">
              <path
                 d="m 725.313,266.895 c -12.102,9.316 -21.805,19 -38.262,15.882 -8.176,-1.547 -15.438,-4.824 -23.914,-4.132 -1.692,0.14 -1.696,2.648 0.031,2.652 11.262,0.023 21.437,5.09 32.652,5.293 12.524,0.23 22.325,-10.246 30.989,-17.828 1.019,-0.891 -0.418,-2.696 -1.496,-1.867"
                 style="fill:#fff0ea;fill-opacity:1;fill-rule:nonzero;stroke:none"
                 id="path238" />
            </g>
          </g>
        </g>
      </g>
      <g
         id="g240">
        <g
           id="g242">
          <g
             id="g244"
             clip-path="url(#clipPath248)">
            <g
               id="g250">
              <path
                 d="m 780.105,263.48 c -1.863,2.836 -23.273,48.348 -25.929,49.188 -9.313,2.816 -52.285,9.898 -52.285,9.898 8.832,9.247 22.672,19.43 22.672,19.43 14.609,1.762 28.285,6.895 45.726,-3.566 10.84,-8 21.508,-33.328 20.52,-39.332 -3.364,-16.102 -9.329,-33.328 -10.704,-35.618"
                 style="fill:#cfe0ee;fill-opacity:1;fill-rule:nonzero;stroke:none"
                 id="path252" />
            </g>
          </g>
        </g>
      </g>
      <g
         id="g254">
        <g
           id="g256">
          <g
             id="g258"
             clip-path="url(#clipPath262)">
            <g
               id="g264">
              <path
                 d="m 756.922,312.055 c 5.582,-18.434 22.137,-30.805 23.32,-50.879 0.117,-1.957 -2.906,-1.899 -3.023,0.035 -1.196,19.605 -17.864,31.949 -22.731,50.238 -0.418,1.571 1.969,2.145 2.434,0.606"
                 style="fill:#cfe0ee;fill-opacity:1;fill-rule:nonzero;stroke:none"
                 id="path266" />
            </g>
          </g>
        </g>
      </g>
      <g
         id="g268">
        <g
           id="g270">
          <g
             id="g272"
             clip-path="url(#clipPath276)">
            <g
               id="g278">
              <path
                 d="m 595.168,131.5 c 50.734,32.309 89.547,79.367 123.66,128.184 34.317,49.101 61.59,101.339 89.289,154.277 0.832,1.598 3.188,0.324 2.449,-1.289 C 785.23,357.324 753.895,304.09 718.785,254.406 685.02,206.621 646.512,160.828 596.547,129.348 c -1.399,-0.883 -2.77,1.269 -1.379,2.152"
                 style="fill:#403d6c;fill-opacity:1;fill-rule:nonzero;stroke:none"
                 id="path280" />
            </g>
          </g>
        </g>
      </g>
      <g
         id="g282">
        <g
           id="g284">
          <g
             id="g286"
             clip-path="url(#clipPath290)">
            <g
               id="g292">
              <path
                 d="m 791.973,379.027 c -0.016,-32.828 5.386,-65.777 -3.45,-97.953 C 780,250.035 759.07,222.035 737.922,198.43 713.961,171.676 685.555,150.289 654.785,131.941 632.367,118.582 608.703,102.227 583.234,95.594 c -57.187,-14.895 -13.566,69.031 -0.437,88.207 26.168,38.226 57.023,73.758 87.836,108.269 14.902,16.692 30.027,33.996 47.289,48.332 20.93,17.383 46.894,30.352 72.25,40.055 1.863,0.711 2.762,-2.238 0.914,-2.945 -23.898,-9.141 -47.602,-21.711 -68.055,-37.067 -14.929,-11.207 -27.656,-26.023 -40.23,-39.691 -32.738,-35.59 -64.309,-72.871 -92.68,-112.055 -14.926,-20.617 -27.371,-44.183 -32.601,-69.222 -9.352,-44.789 56.738,-7.204 71.914,1.796 31.144,18.473 62.351,36.008 88.644,61.364 26.027,25.09 48.625,53.75 63.024,87.097 15.109,34.996 7.257,72.481 8.187,109.207 0.043,1.715 2.684,1.829 2.684,0.086"
                 style="fill:#403d6c;fill-opacity:1;fill-rule:nonzero;stroke:none"
                 id="path294" />
            </g>
          </g>
        </g>
      </g>
    </g>
    <g
       id="g296"
       transform="translate(-79.5)">
      <g
         id="g298"
         clip-path="url(#clipPath302)">
        <g
           id="g304">
          <g
             id="g306">
            <g
               id="g308"
               clip-path="url(#clipPath312)">
              <g
                 id="g314">
                <path
                   d="m 284.176,98.41 c 0.918,6.074 -1.957,12.051 -6.149,16.285 -4.722,4.774 -10.949,7.219 -17.597,7.629 -8.731,0.535 -17.203,-2.094 -25.246,-5.226 -0.52,-0.215 -1.149,0.043 -1.528,0.398 -1.699,1.59 -3.504,3.012 -5.367,4.293 -8.137,5.598 -17.781,8.426 -27.738,9.055 -13.469,0.84 -26.711,-2.371 -39.293,-6.942 -7.633,-2.769 -15.047,-6.054 -22.465,-9.375 -0.641,-0.273 -1.313,-0.273 -1.848,0.246 -8.257,8.028 -17.906,14.235 -28.84,17.981 -10.808,3.715 -22.367,5.137 -33.746,4.035 -4.066,-0.398 -8.101,-1.144 -12.046,-2.23 -1.563,-0.43 -3.122,-0.903 -4.649,-1.438 -2.953,-1.023 -5.828,-2.246 -8.504,-3.855 -1.312,-0.778 -2.566,-1.633 -3.73,-2.614 -1.239,-1.054 -2.246,-2.293 -3.407,-3.425 -0.98,-0.93 -2.128,-1.633 -3.519,-1.743 -1.727,-0.121 -3.438,0.704 -5.074,1.164 -3.336,0.915 -6.746,1.45 -10.2,1.528 -5.871,0.137 -12.675,-0.594 -17.449,-4.371 -5.367,-4.207 -5.394,-11.5 -1.863,-16.914 3.809,-5.825 10.965,-8.379 17.492,-9.539 0.856,-0.153 1.375,-1.223 1.149,-2.004 C 19.527,81.043 21.961,70.109 28.535,61.668 35.613,52.555 46.836,48 58.168,47.633 c 6.59,-0.215 13.105,0.933 19.25,3.242 0.812,0.305 1.805,-0.336 2.004,-1.133 2.109,-8.762 5.703,-16.789 11.191,-23.976 5.446,-7.153 12.539,-13.102 20.457,-17.321 16.684,-8.855 37.282,-9.113 54.453,-1.468 10.227,4.554 18.957,11.804 25.684,20.718 -0.137,0.977 0.582,2.078 1.762,1.618 13.636,-5.274 29.433,-6.633 43.211,-1.067 12.109,4.891 21.175,15.609 23.593,28.5 1.266,6.742 0.395,13.793 -2.863,19.848 -0.472,0.871 -0.09,2.14 0.965,2.383 10.367,2.308 24.465,7.281 26.301,19.433"
                   style="fill:#dce9f0;fill-opacity:1;fill-rule:nonzero;stroke:none"
                   id="path316" />
              </g>
            </g>
          </g>
        </g>
        <g
           id="g318">
          <g
             id="g320">
            <g
               id="g322"
               clip-path="url(#clipPath326)">
              <g
                 id="g328">
                <g
                   id="g330"
                   transform="scale(1,-1)">
                  <path
                     d="m 284.176,-98.41 c 0.918,-6.074 -1.957,-12.051 -6.149,-16.285 -4.722,-4.774 -10.949,-7.219 -17.597,-7.629 -8.731,-0.535 -17.203,2.094 -25.246,5.226 -0.52,0.215 -1.149,-0.043 -1.528,-0.398 -1.699,-1.59 -3.504,-3.012 -5.367,-4.293 -8.137,-5.598 -17.781,-8.426 -27.738,-9.055 -13.469,-0.84 -26.711,2.371 -39.293,6.942 -7.633,2.769 -15.047,6.054 -22.465,9.375 -0.641,0.273 -1.313,0.273 -1.848,-0.246 -8.257,-8.028 -17.906,-14.235 -28.84,-17.981 -10.808,-3.715 -22.367,-5.137 -33.746,-4.035 -4.066,0.398 -8.101,1.144 -12.046,2.23 -1.563,0.43 -3.122,0.903 -4.649,1.438 -2.953,1.023 -5.828,2.246 -8.504,3.855 -1.312,0.778 -2.566,1.633 -3.73,2.614 -1.239,1.054 -2.246,2.293 -3.407,3.425 -0.98,0.93 -2.128,1.633 -3.519,1.743 -1.727,0.121 -3.438,-0.704 -5.074,-1.164 -3.336,-0.915 -6.746,-1.45 -10.2,-1.528 -5.871,-0.137 -12.675,0.594 -17.449,4.371 -5.367,4.207 -5.394,11.5 -1.863,16.914 3.809,5.825 10.965,8.379 17.492,9.539 0.856,0.153 1.375,1.223 1.149,2.004 -3.032,10.305 -0.598,21.239 5.976,29.68 7.078,9.113 18.301,13.668 29.633,14.035 6.59,0.215 13.105,-0.933 19.25,-3.242 0.812,-0.305 1.805,0.336 2.004,1.133 2.109,8.762 5.703,16.789 11.191,23.976 5.446,7.153 12.539,13.102 20.457,17.321 16.684,8.855 37.282,9.113 54.453,1.468 10.227,-4.554 18.957,-11.804 25.684,-20.718 -0.137,-0.977 0.582,-2.078 1.762,-1.618 13.636,5.274 29.433,6.633 43.211,1.067 12.109,-4.891 21.175,-15.609 23.593,-28.5 1.266,-6.742 0.395,-13.793 -2.863,-19.848 -0.472,-0.871 -0.09,-2.14 0.965,-2.383 10.367,-2.308 24.465,-7.281 26.301,-19.433 z"
                     style="fill:none;stroke:#403d6c;stroke-width:3;stroke-linecap:butt;stroke-linejoin:miter;stroke-miterlimit:10;stroke-dasharray:none;stroke-opacity:1"
                     id="path332" />
                </g>
              </g>
            </g>
          </g>
        </g>
        <g
           id="g334">
          <g
             id="g336">
            <g
               id="g338"
               clip-path="url(#clipPath342)">
              <g
                 id="g344">
                <path
                   d="m 125.809,77.512 c -0.063,-0.418 -0.137,-0.832 -0.286,-1.231 -0.312,-0.847 -0.75,-1.586 -1.343,-2.261 -1.18,-1.352 -2.95,-2.125 -4.735,-2.129 -1.828,-0.004 -3.695,-0.75 -4.886,0.656 -1.282,1.512 -1.723,4.957 -1.418,6.894 0.105,0.688 0.929,1.114 1.554,1.016 0.637,-0.094 1.305,-0.68 1.231,-1.391 -0.078,-0.753 -0.047,-1.101 0.172,-1.761 0,0 0.101,-0.25 0.105,-0.274 0.063,-0.121 0.125,-0.246 0.195,-0.363 0.09,-0.156 0.184,-0.313 0.29,-0.461 0.023,-0.035 0.035,-0.051 0.039,-0.059 0.035,-0.043 0.07,-0.085 0.109,-0.125 0.121,-0.136 0.25,-0.257 0.383,-0.386 0.062,-0.059 0.074,-0.078 0.078,-0.082 0.008,-0.004 0.035,-0.016 0.113,-0.067 0.129,-0.082 0.258,-0.168 0.395,-0.242 0.008,-0.004 0.316,-0.152 0.265,-0.133 0.66,-0.273 1.035,-0.312 1.688,-0.281 0.004,0 0.258,0.031 0.289,0.031 0.133,0.028 0.266,0.051 0.394,0.09 0.129,0.035 0.254,0.078 0.375,0.121 0.028,0.02 0.274,0.137 0.309,0.156 0.523,0.29 0.785,0.485 1.176,1 -0.039,-0.042 0.129,0.204 0.148,0.235 0.09,0.144 0.172,0.297 0.246,0.449 0.012,0.031 0.02,0.047 0.028,0.059 0.023,0.066 0.054,0.136 0.074,0.211 0.047,0.136 0.086,0.281 0.117,0.421 0.207,0.907 0.172,1.727 0.813,2.477 0.773,0.898 2.433,0.188 2.367,-0.98 -0.031,-0.536 -0.203,-1.055 -0.285,-1.59"
                   style="fill:#403d6c;fill-opacity:1;fill-rule:nonzero;stroke:none"
                   id="path346" />
              </g>
            </g>
          </g>
        </g>
        <g
           id="g348">
          <g
             id="g350">
            <g
               id="g352"
               clip-path="url(#clipPath356)">
              <g
                 id="g358">
                <path
                   d="m 183.793,77.512 c -0.063,-0.418 -0.137,-0.832 -0.285,-1.231 -0.313,-0.847 -0.75,-1.586 -1.344,-2.261 -1.18,-1.352 -2.949,-2.125 -4.73,-2.129 -1.832,-0.004 -3.7,0.781 -4.891,2.183 -1.281,1.512 -1.723,3.43 -1.418,5.367 0.109,0.688 0.93,1.114 1.559,1.016 0.632,-0.094 1.3,-0.68 1.226,-1.391 -0.078,-0.753 -0.047,-1.101 0.172,-1.761 0,0 0.102,-0.25 0.109,-0.274 0.059,-0.121 0.122,-0.246 0.192,-0.363 0.09,-0.156 0.183,-0.313 0.289,-0.461 0.023,-0.035 0.035,-0.051 0.039,-0.059 0.035,-0.043 0.07,-0.085 0.109,-0.125 0.121,-0.136 0.25,-0.257 0.383,-0.386 0.063,-0.059 0.078,-0.078 0.078,-0.082 0.008,-0.004 0.035,-0.016 0.114,-0.067 0.128,-0.082 0.257,-0.168 0.394,-0.242 0.012,-0.004 0.316,-0.152 0.266,-0.133 0.664,-0.273 1.035,-0.312 1.687,-0.281 0.004,0 0.258,0.031 0.289,0.031 0.133,0.028 0.266,0.051 0.395,0.09 0.129,0.035 0.254,0.078 0.379,0.121 0.023,0.02 0.269,0.137 0.304,0.156 0.524,0.29 0.789,0.485 1.176,1 -0.039,-0.042 0.129,0.204 0.149,0.235 0.089,0.144 0.171,0.297 0.246,0.449 0.015,0.031 0.023,0.047 0.027,0.059 0.027,0.066 0.055,0.136 0.074,0.211 0.047,0.136 0.086,0.281 0.121,0.421 0.203,0.907 0.168,1.727 0.813,2.477 0.769,0.898 2.43,0.188 2.363,-0.98 -0.031,-0.536 -0.203,-1.055 -0.285,-1.59"
                   style="fill:#403d6c;fill-opacity:1;fill-rule:nonzero;stroke:none"
                   id="path360" />
              </g>
            </g>
          </g>
        </g>
        <g
           id="g362">
          <g
             id="g364">
            <g
               id="g366"
               clip-path="url(#clipPath370)">
              <g
                 id="g372">
                <path
                   d="m 157.414,77.336 c -0.098,-1.699 -2.449,-2.066 -2.98,-0.402 -0.055,0.168 -0.11,0.336 -0.157,0.504 -0.011,0.046 -0.105,0.347 -0.097,0.339 -0.008,0.02 -0.016,0.036 -0.032,0.063 -0.043,0.094 -0.089,0.18 -0.14,0.269 -0.063,0.11 -0.133,0.219 -0.207,0.321 -0.028,0.027 -0.164,0.203 -0.184,0.222 -0.101,0.118 -0.215,0.227 -0.324,0.332 -0.102,0.094 -0.203,0.18 -0.309,0.266 -0.039,0.023 -0.211,0.148 -0.238,0.168 -1.144,0.754 -2.437,1.094 -3.773,1.094 -1.305,-0.004 -2.504,-0.352 -3.602,-1.016 -1.039,-0.633 -1.973,-1.601 -2.824,-2.605 -0.742,-0.868 -2.317,0.054 -1.938,1.125 1.235,3.48 5.063,3.988 8.633,3.957 1.844,-0.016 3.797,1 5.321,-0.063 1.445,-1.008 2.957,-2.687 2.851,-4.574"
                   style="fill:#403d6c;fill-opacity:1;fill-rule:nonzero;stroke:none"
                   id="path374" />
              </g>
            </g>
          </g>
        </g>
        <g
           id="g376">
          <g
             id="g378">
            <g
               id="g380"
               clip-path="url(#clipPath384)">
              <g
                 id="g386">
                <path
                   d="m 170.828,88.09 c -0.066,1.156 0.438,2.387 1.27,3.23 1.218,1.243 2.965,1.805 4.672,2.137 4.289,0.828 8.972,0.398 12.8,-1.805 2.977,-1.711 4.825,-5.597 0.739,-7.257 -5.125,-2.082 -11.266,-1.622 -16.34,0.367 -1.008,0.394 -2.043,0.898 -2.645,1.801 -0.308,0.46 -0.465,0.988 -0.496,1.527"
                   style="fill:#ffb09c;fill-opacity:1;fill-rule:nonzero;stroke:none"
                   id="path388" />
              </g>
            </g>
          </g>
        </g>
        <g
           id="g390">
          <g
             id="g392">
            <g
               id="g394"
               clip-path="url(#clipPath398)">
              <g
                 id="g400">
                <path
                   d="m 106.656,89.047 c -0.07,1.156 0.438,2.391 1.27,3.234 1.219,1.239 2.965,1.801 4.672,2.133 4.285,0.828 8.972,0.399 12.8,-1.805 2.977,-1.711 4.825,-5.597 0.735,-7.257 -5.121,-2.082 -11.262,-1.622 -16.336,0.367 -1.012,0.394 -2.043,0.898 -2.645,1.804 -0.308,0.461 -0.464,0.985 -0.496,1.524"
                   style="fill:#ffb09c;fill-opacity:1;fill-rule:nonzero;stroke:none"
                   id="path402" />
              </g>
            </g>
          </g>
        </g>
        <g
           id="g404">
          <g
             id="g406" />
          <g
             id="g440">
            <g
               clip-path="url(#clipPath410)"
               id="g438">
              <g
                 id="g420" />
              <g
                 id="g436">
                <g
                   clip-path="url(#clipPath414)"
                   id="g434">
                  <g
                     id="g432">
                    <g
                       id="g422" />
                    <g
                       id="g430">
                      <g
                         clip-path="url(#clipPath418)"
                         opacity="0.5"
                         id="g428">
                        <g
                           id="g426">
                          <path
                             d="m 166.574,16.734 c -1.812,-2.453 -5.273,-3.48 -8.043,-4.484 -3.113,-1.129 -6.343,-1.949 -9.609,-2.48 -6.512,-1.063 -13.117,-1.04 -19.613,0.113 -11.973,2.125 -23.231,8.492 -31.321,17.57 -4.472,5.016 -7.894,10.723 -9.945,17.129 -0.484,1.512 1.875,2.547 2.598,1.094 4.894,-9.821 11.964,-18.668 21.297,-24.582 9.984,-6.328 21.839,-8.922 33.574,-7.656 3.426,0.371 6.82,1.117 10.105,2.156 1.649,0.519 3.278,1.101 4.867,1.781 1.575,0.672 3.079,1.496 4.821,1.57 1.039,0.043 1.933,-1.312 1.269,-2.211"
                             style="fill:#ffffff;fill-opacity:1;fill-rule:nonzero;stroke:none"
                             id="path424" />
                        </g>
                      </g>
                    </g>
                  </g>
                </g>
              </g>
            </g>
          </g>
        </g>
        <g
           id="g442">
          <g
             id="g444" />
          <g
             id="g478">
            <g
               clip-path="url(#clipPath448)"
               id="g476">
              <g
                 id="g458" />
              <g
                 id="g474">
                <g
                   clip-path="url(#clipPath452)"
                   id="g472">
                  <g
                     id="g470">
                    <g
                       id="g460" />
                    <g
                       id="g468">
                      <g
                         clip-path="url(#clipPath456)"
                         opacity="0.5"
                         id="g466">
                        <g
                           id="g464">
                          <path
                             d="m 175.082,22.699 c -0.016,-0.074 -0.027,-0.148 -0.047,-0.226 -0.027,-0.141 -0.055,-0.282 -0.086,-0.422 -0.047,-0.242 -0.168,-0.446 -0.289,-0.656 -0.074,-0.141 -0.156,-0.282 -0.234,-0.422 -0.078,-0.141 -0.184,-0.258 -0.317,-0.344 -0.121,-0.109 -0.257,-0.184 -0.418,-0.219 -0.164,-0.051 -0.328,-0.062 -0.492,-0.023 -0.164,0.008 -0.316,0.054 -0.457,0.144 -0.262,0.172 -0.492,0.422 -0.566,0.735 -0.016,0.113 -0.028,0.222 -0.043,0.328 0,0.222 0.055,0.429 0.168,0.621 0.094,0.129 0.191,0.262 0.289,0.39 0.047,0.067 0.094,0.129 0.14,0.196 0.071,0.086 0.137,0.176 0.208,0.262 0.07,0.089 0.152,0.156 0.253,0.207 0.028,0.019 0.055,0.039 0.079,0.058 0.113,0.078 0.226,0.16 0.339,0.242 0.059,0.043 0.118,0.086 0.176,0.125 0.106,0.071 0.238,0.106 0.36,0.153 0.218,0.082 0.488,0 0.664,-0.137 0.199,-0.152 0.289,-0.352 0.3,-0.602 0.008,-0.14 0.004,-0.261 -0.027,-0.41"
                             style="fill:#ffffff;fill-opacity:1;fill-rule:nonzero;stroke:none"
                             id="path462" />
                        </g>
                      </g>
                    </g>
                  </g>
                </g>
              </g>
            </g>
          </g>
        </g>
        <g
           id="g480">
          <g
             id="g482" />
          <g
             id="g516">
            <g
               clip-path="url(#clipPath486)"
               id="g514">
              <g
                 id="g496" />
              <g
                 id="g512">
                <g
                   clip-path="url(#clipPath490)"
                   id="g510">
                  <g
                     id="g508">
                    <g
                       id="g498" />
                    <g
                       id="g506">
                      <g
                         clip-path="url(#clipPath494)"
                         opacity="0.5"
                         id="g504">
                        <g
                           id="g502">
                          <path
                             d="m 184.254,28.566 c -0.399,-0.636 -0.957,-1.293 -1.52,-1.793 -0.566,-0.5 -1.16,-1.011 -1.828,-1.363 -0.578,-0.305 -1.172,-0.586 -1.769,-0.847 -0.356,-0.153 -0.68,-0.247 -1.071,-0.141 -0.32,0.09 -0.668,0.34 -0.828,0.641 -0.379,0.718 -0.129,1.437 0.5,1.894 0.09,0.066 0.176,0.141 0.27,0.199 -0.074,-0.047 -0.106,-0.066 -0.129,-0.082 0.047,0.031 0.125,0.086 0.16,0.114 0.149,0.125 0.281,0.257 0.414,0.398 0.301,0.305 0.57,0.637 0.875,0.941 0.563,0.567 1.086,1.188 1.582,1.817 0.25,0.336 0.5,0.676 0.817,0.945 0.074,0.063 0.144,0.125 0.218,0.188 0.328,0.281 0.43,0.312 0.832,0.476 0.028,0.012 0.055,0.024 0.082,0.031 0.039,0.02 0.067,0.032 0.118,0.051 0.078,0.02 0.152,0.035 0.23,0.047 0.691,0.129 1.231,-0.187 1.484,-0.84 0.348,-0.894 0.051,-1.894 -0.437,-2.676"
                             style="fill:#ffffff;fill-opacity:1;fill-rule:nonzero;stroke:none"
                             id="path500" />
                        </g>
                      </g>
                    </g>
                  </g>
                </g>
              </g>
            </g>
          </g>
        </g>
        <g
           id="g518">
          <g
             id="g520" />
          <g
             id="g554">
            <g
               clip-path="url(#clipPath524)"
               id="g552">
              <g
                 id="g534" />
              <g
                 id="g550">
                <g
                   clip-path="url(#clipPath528)"
                   id="g548">
                  <g
                     id="g546">
                    <g
                       id="g536" />
                    <g
                       id="g544">
                      <g
                         clip-path="url(#clipPath532)"
                         opacity="0.5"
                         id="g542">
                        <g
                           id="g540">
                          <path
                             d="m 177.879,27.074 c -0.039,-0.023 -0.047,-0.027 0,0"
                             style="fill:#ffffff;fill-opacity:1;fill-rule:nonzero;stroke:none"
                             id="path538" />
                        </g>
                      </g>
                    </g>
                  </g>
                </g>
              </g>
            </g>
          </g>
        </g>
        <g
           id="g556">
          <g
             id="g558" />
          <g
             id="g592">
            <g
               clip-path="url(#clipPath562)"
               id="g590">
              <g
                 id="g572" />
              <g
                 id="g588">
                <g
                   clip-path="url(#clipPath566)"
                   id="g586">
                  <g
                     id="g584">
                    <g
                       id="g574" />
                    <g
                       id="g582">
                      <g
                         clip-path="url(#clipPath570)"
                         opacity="0.5"
                         id="g580">
                        <g
                           id="g578">
                          <path
                             d="m 252.41,50.668 c -2.051,-4.992 -5.765,-8.988 -10.211,-11.973 -9.625,-6.461 -22.5,-8.679 -33.679,-5.679 -1.868,0.504 -1.02,3.054 0.777,2.812 10.133,-1.371 20.848,-0.109 29.691,5.293 3.926,2.399 7.403,5.699 9.403,9.895 1.007,2.109 1.621,4.425 1.746,6.761 0.066,1.278 0.004,2.516 -0.16,3.782 -0.137,1.058 -0.352,1.921 0.285,2.839 0.273,0.395 0.801,0.711 1.297,0.528 2.339,-0.856 2.461,-4.395 2.464,-6.535 0,-2.625 -0.625,-5.301 -1.613,-7.723"
                             style="fill:#ffffff;fill-opacity:1;fill-rule:nonzero;stroke:none"
                             id="path576" />
                        </g>
                      </g>
                    </g>
                  </g>
                </g>
              </g>
            </g>
          </g>
        </g>
        <g
           id="g594">
          <g
             id="g596" />
          <g
             id="g630">
            <g
               clip-path="url(#clipPath600)"
               id="g628">
              <g
                 id="g610" />
              <g
                 id="g626">
                <g
                   clip-path="url(#clipPath604)"
                   id="g624">
                  <g
                     id="g622">
                    <g
                       id="g612" />
                    <g
                       id="g620">
                      <g
                         clip-path="url(#clipPath608)"
                         opacity="0.5"
                         id="g618">
                        <g
                           id="g616">
                          <path
                             d="m 253.316,69.262 c -0.066,-0.215 -0.187,-0.399 -0.355,-0.555 -0.156,-0.168 -0.34,-0.285 -0.555,-0.355 -0.203,-0.11 -0.426,-0.157 -0.66,-0.149 -0.445,0.02 -0.906,0.164 -1.219,0.504 -0.089,0.117 -0.179,0.234 -0.269,0.348 -0.156,0.269 -0.231,0.558 -0.235,0.871 -0.046,0.394 -0.101,0.793 -0.144,1.191 -0.024,0.192 -0.035,0.383 -0.008,0.574 0.008,0.051 0.012,0.102 0.02,0.157 0.05,0.355 0.05,0.554 0.242,0.875 0.09,0.152 0.238,0.308 0.359,0.453 0.094,0.07 0.188,0.144 0.285,0.219 0.161,0.101 0.336,0.16 0.524,0.168 0.125,0.031 0.25,0.031 0.375,0 0.187,-0.008 0.363,-0.067 0.523,-0.168 0.145,-0.114 0.332,-0.231 0.453,-0.348 0.262,-0.262 0.379,-0.578 0.504,-0.91 0.114,-0.309 0.149,-0.684 0.18,-0.996 0.047,-0.407 0.086,-0.813 0.129,-1.215 0.008,-0.238 -0.039,-0.461 -0.149,-0.664"
                             style="fill:#ffffff;fill-opacity:1;fill-rule:nonzero;stroke:none"
                             id="path614" />
                        </g>
                      </g>
                    </g>
                  </g>
                </g>
              </g>
            </g>
          </g>
        </g>
        <g
           id="g632">
          <g
             id="g634" />
          <g
             id="g668">
            <g
               clip-path="url(#clipPath638)"
               id="g666">
              <g
                 id="g648" />
              <g
                 id="g664">
                <g
                   clip-path="url(#clipPath642)"
                   id="g662">
                  <g
                     id="g660">
                    <g
                       id="g650" />
                    <g
                       id="g658">
                      <g
                         clip-path="url(#clipPath646)"
                         opacity="0.5"
                         id="g656">
                        <g
                           id="g654">
                          <path
                             d="m 277.859,99.645 c -0.601,-2.653 -1.953,-5.071 -3.726,-7.114 -3.762,-4.328 -9.27,-6.031 -14.469,-7.965 -1.684,-0.628 -2.887,2.168 -1.234,2.926 2.34,1.071 4.707,2.09 7.035,3.184 2.07,0.969 3.961,2.179 5.539,3.844 1.461,1.531 2.566,3.39 3.125,5.437 0.312,1.129 0.449,2.266 0.406,3.441 -0.039,1.141 -0.293,2.5 0.434,3.469 0.41,0.543 0.941,0.684 1.57,0.414 2.477,-1.074 1.785,-5.582 1.32,-7.636"
                             style="fill:#ffffff;fill-opacity:1;fill-rule:nonzero;stroke:none"
                             id="path652" />
                        </g>
                      </g>
                    </g>
                  </g>
                </g>
              </g>
            </g>
          </g>
        </g>
        <g
           id="g670">
          <g
             id="g672" />
          <g
             id="g706">
            <g
               clip-path="url(#clipPath676)"
               id="g704">
              <g
                 id="g686" />
              <g
                 id="g702">
                <g
                   clip-path="url(#clipPath680)"
                   id="g700">
                  <g
                     id="g698">
                    <g
                       id="g688" />
                    <g
                       id="g696">
                      <g
                         clip-path="url(#clipPath684)"
                         opacity="0.5"
                         id="g694">
                        <g
                           id="g692">
                          <path
                             d="m 62.102,56.68 c -2.149,-0.778 -4.555,-0.504 -6.789,-0.305 -2.192,0.195 -4.383,0.52 -6.528,1.023 -4.289,1.008 -8.515,2.743 -12.09,5.344 -6.457,4.696 -11.199,12.297 -10.547,20.488 0.149,1.864 2.809,1.891 2.915,0 0.406,-7.156 4.535,-13.765 10.429,-17.753 3.207,-2.168 6.828,-3.602 10.59,-4.469 2.008,-0.461 4.047,-0.762 6.102,-0.914 1.98,-0.149 3.996,-0.004 5.918,-0.582 1.449,-0.438 1.336,-2.352 0,-2.832"
                             style="fill:#ffffff;fill-opacity:1;fill-rule:nonzero;stroke:none"
                             id="path690" />
                        </g>
                      </g>
                    </g>
                  </g>
                </g>
              </g>
            </g>
          </g>
        </g>
        <g
           id="g708">
          <g
             id="g710" />
          <g
             id="g744">
            <g
               clip-path="url(#clipPath714)"
               id="g742">
              <g
                 id="g724" />
              <g
                 id="g740">
                <g
                   clip-path="url(#clipPath718)"
                   id="g738">
                  <g
                     id="g736">
                    <g
                       id="g726" />
                    <g
                       id="g734">
                      <g
                         clip-path="url(#clipPath722)"
                         opacity="0.5"
                         id="g732">
                        <g
                           id="g730">
                          <path
                             d="m 73.02,56.191 c -0.161,-0.054 -0.321,-0.117 -0.477,-0.179 0.004,0.004 0.012,0.004 0.023,0.008 C 72.352,55.93 72.32,55.93 72,55.895 71.652,55.84 71.305,55.762 70.961,55.688 c -0.379,-0.079 -0.75,-0.192 -1.109,-0.333 -0.375,-0.144 -0.938,-0.027 -1.27,0.168 -0.344,0.2 -0.668,0.59 -0.758,0.985 -0.097,0.422 -0.078,0.894 0.164,1.269 0.086,0.114 0.172,0.223 0.258,0.336 0.207,0.203 0.449,0.344 0.727,0.422 0.66,0.258 1.371,0.434 2.078,0.461 0.285,0.012 0.574,0.008 0.863,-0.016 0.383,-0.031 0.539,-0.074 0.887,-0.23 0.047,-0.023 0.094,-0.047 0.14,-0.066 0.129,-0.063 0.254,-0.133 0.379,-0.2 0.434,-0.25 0.664,-0.765 0.598,-1.25 -0.07,-0.511 -0.418,-0.879 -0.898,-1.043"
                             style="fill:#ffffff;fill-opacity:1;fill-rule:nonzero;stroke:none"
                             id="path728" />
                        </g>
                      </g>
                    </g>
                  </g>
                </g>
              </g>
            </g>
          </g>
        </g>
      </g>
    </g>
  </g>
</svg>
